# 3ds Max Wavefront OBJ Exporter v0.97b - (c)2007 guruware
# File Created: 03.12.2015 23:20:54

mtllib 1.mtl

#
# object MeshEnemy1
#

v  3.500000 2.500000 5.000000
v  4.500000 2.500000 5.000000
v  3.500000 7.500000 5.000000
v  4.500000 7.500000 5.000000
v  3.500000 7.500000 -5.000000
v  4.500000 7.500000 -5.000000
v  3.500000 2.500000 -5.000000
v  4.500000 2.500000 -5.000000
v  3.500000 7.500000 5.000000
v  4.500000 7.500000 5.000000
v  3.500000 7.500000 -5.000000
v  4.500000 7.500000 -5.000000
v  3.500000 2.500000 -5.000000
v  4.500000 2.500000 5.000000
v  4.500000 2.500000 -5.000000
v  3.500000 2.500000 5.000000
v  4.500000 2.500000 5.000000
v  4.500000 7.500000 -5.000000
v  4.500000 2.500000 -5.000000
v  4.500000 7.500000 5.000000
v  3.500000 2.500000 -5.000000
v  3.500000 7.500000 5.000000
v  3.500000 2.500000 5.000000
v  3.500000 7.500000 -5.000000
v  -4.500000 2.500000 5.000000
v  -3.500000 2.500000 5.000000
v  -4.500000 7.500000 5.000000
v  -3.500000 7.500000 5.000000
v  -4.500000 7.500000 -5.000000
v  -3.500000 7.500000 -5.000000
v  -4.500000 2.500000 -5.000000
v  -3.500000 2.500000 -5.000000
v  -4.500000 7.500000 5.000000
v  -3.500000 7.500000 5.000000
v  -4.500000 7.500000 -5.000000
v  -3.500000 7.500000 -5.000000
v  -4.500000 2.500000 -5.000000
v  -3.500000 2.500000 5.000000
v  -3.500000 2.500000 -5.000000
v  -4.500000 2.500000 5.000000
v  -3.500000 2.500000 5.000000
v  -3.500000 7.500000 -5.000000
v  -3.500000 2.500000 -5.000000
v  -3.500000 7.500000 5.000000
v  -4.500000 2.500000 -5.000000
v  -4.500000 7.500000 5.000000
v  -4.500000 2.500000 5.000000
v  -4.500000 7.500000 -5.000000
v  3.500000 1.500000 -4.000000
v  4.500000 1.500000 -4.000000
v  3.500000 2.500000 -4.000000
v  4.500000 2.500000 -4.000000
v  3.500000 1.500000 -5.000000
v  4.500000 1.500000 -5.000000
v  3.500000 2.500000 -5.000000
v  4.500000 2.500000 -5.000000
v  4.500000 1.500000 -4.000000
v  4.500000 2.500000 -5.000000
v  4.500000 1.500000 -5.000000
v  4.500000 2.500000 -4.000000
v  3.500000 1.500000 -5.000000
v  3.500000 2.500000 -4.000000
v  3.500000 1.500000 -4.000000
v  3.500000 2.500000 -5.000000
v  3.500000 1.500000 5.000000
v  4.500000 1.500000 5.000000
v  3.500000 2.500000 5.000000
v  4.500000 2.500000 5.000000
v  3.500000 1.500000 4.000000
v  4.500000 1.500000 4.000000
v  3.500000 2.500000 4.000000
v  4.500000 2.500000 4.000000
v  4.500000 1.500000 5.000000
v  4.500000 2.500000 4.000000
v  4.500000 1.500000 4.000000
v  4.500000 2.500000 5.000000
v  3.500000 1.500000 4.000000
v  3.500000 2.500000 5.000000
v  3.500000 1.500000 5.000000
v  3.500000 2.500000 4.000000
v  -4.500000 1.500000 5.000000
v  -3.500000 1.500000 5.000000
v  -4.500000 2.500000 5.000000
v  -3.500000 2.500000 5.000000
v  -4.500000 1.500000 4.000000
v  -3.500000 1.500000 4.000000
v  -4.500000 2.500000 4.000000
v  -3.500000 2.500000 4.000000
v  -3.500000 1.500000 5.000000
v  -3.500000 2.500000 4.000000
v  -3.500000 1.500000 4.000000
v  -3.500000 2.500000 5.000000
v  -4.500000 1.500000 4.000000
v  -4.500000 2.500000 5.000000
v  -4.500000 1.500000 5.000000
v  -4.500000 2.500000 4.000000
v  -4.500000 1.500000 -4.000000
v  -3.500000 1.500000 -4.000000
v  -4.500000 2.500000 -4.000000
v  -3.500000 2.500000 -4.000000
v  -4.500000 1.500000 -5.000000
v  -3.500000 1.500000 -5.000000
v  -4.500000 2.500000 -5.000000
v  -3.500000 2.500000 -5.000000
v  -3.500000 1.500000 -4.000000
v  -3.500000 2.500000 -5.000000
v  -3.500000 1.500000 -5.000000
v  -3.500000 2.500000 -4.000000
v  -4.500000 1.500000 -5.000000
v  -4.500000 2.500000 -4.000000
v  -4.500000 1.500000 -4.000000
v  -4.500000 2.500000 -5.000000
# 112 vertices

vn 0.000000 0.000000 1.000000
vn 0.000000 1.000000 -0.000000
vn 0.000000 0.000000 -1.000000
vn 0.000000 -1.000000 -0.000000
vn 1.000000 0.000000 -0.000000
vn -1.000000 0.000000 -0.000000
# 6 vertex normals

vt 1.000000 1.000000 0.000000
vt 0.000000 0.000000 0.000000
vt 1.000000 0.000000 0.000000
vt 0.000000 1.000000 0.000000
# 4 texture coords

g MeshEnemy1
usemtl _MeshEnemy1_0Player
s 1
f -109/-4/-6 -112/-3/-6 -111/-2/-6 
f -110/-1/-6 -112/-3/-6 -109/-4/-6 
f -107/-4/-5 -104/-3/-5 -103/-2/-5 
f -108/-1/-5 -104/-3/-5 -107/-4/-5 
f -105/-4/-4 -102/-3/-4 -101/-2/-4 
f -106/-1/-4 -102/-3/-4 -105/-4/-4 
f -99/-4/-3 -100/-3/-3 -98/-2/-3 
f -97/-1/-3 -100/-3/-3 -99/-4/-3 
f -95/-4/-2 -96/-3/-2 -94/-2/-2 
f -93/-1/-2 -96/-3/-2 -95/-4/-2 
f -91/-4/-1 -92/-3/-1 -90/-2/-1 
f -89/-1/-1 -92/-3/-1 -91/-4/-1 
f -85/-4/-6 -88/-3/-6 -87/-2/-6 
f -86/-1/-6 -88/-3/-6 -85/-4/-6 
f -83/-4/-5 -80/-3/-5 -79/-2/-5 
f -84/-1/-5 -80/-3/-5 -83/-4/-5 
f -81/-4/-4 -78/-3/-4 -77/-2/-4 
f -82/-1/-4 -78/-3/-4 -81/-4/-4 
f -75/-4/-3 -76/-3/-3 -74/-2/-3 
f -73/-1/-3 -76/-3/-3 -75/-4/-3 
f -71/-4/-2 -72/-3/-2 -70/-2/-2 
f -69/-1/-2 -72/-3/-2 -71/-4/-2 
f -67/-4/-1 -68/-3/-1 -66/-2/-1 
f -65/-1/-1 -68/-3/-1 -67/-4/-1 
f -61/-4/-6 -64/-3/-6 -63/-2/-6 
f -62/-1/-6 -64/-3/-6 -61/-4/-6 
f -59/-4/-4 -58/-3/-4 -57/-2/-4 
f -60/-1/-4 -58/-3/-4 -59/-4/-4 
f -55/-4/-2 -56/-3/-2 -54/-2/-2 
f -53/-1/-2 -56/-3/-2 -55/-4/-2 
f -51/-4/-1 -52/-3/-1 -50/-2/-1 
f -49/-1/-1 -52/-3/-1 -51/-4/-1 
f -45/-4/-6 -48/-3/-6 -47/-2/-6 
f -46/-1/-6 -48/-3/-6 -45/-4/-6 
f -43/-4/-4 -42/-3/-4 -41/-2/-4 
f -44/-1/-4 -42/-3/-4 -43/-4/-4 
f -39/-4/-2 -40/-3/-2 -38/-2/-2 
f -37/-1/-2 -40/-3/-2 -39/-4/-2 
f -35/-4/-1 -36/-3/-1 -34/-2/-1 
f -33/-1/-1 -36/-3/-1 -35/-4/-1 
f -29/-4/-6 -32/-3/-6 -31/-2/-6 
f -30/-1/-6 -32/-3/-6 -29/-4/-6 
f -27/-4/-4 -26/-3/-4 -25/-2/-4 
f -28/-1/-4 -26/-3/-4 -27/-4/-4 
f -23/-4/-2 -24/-3/-2 -22/-2/-2 
f -21/-1/-2 -24/-3/-2 -23/-4/-2 
f -19/-4/-1 -20/-3/-1 -18/-2/-1 
f -17/-1/-1 -20/-3/-1 -19/-4/-1 
f -13/-4/-6 -16/-3/-6 -15/-2/-6 
f -14/-1/-6 -16/-3/-6 -13/-4/-6 
f -11/-4/-4 -10/-3/-4 -9/-2/-4 
f -12/-1/-4 -10/-3/-4 -11/-4/-4 
f -7/-4/-2 -8/-3/-2 -6/-2/-2 
f -5/-1/-2 -8/-3/-2 -7/-4/-2 
f -3/-4/-1 -4/-3/-1 -2/-2/-1 
f -1/-1/-1 -4/-3/-1 -3/-4/-1 
# 0 polygons - 56 triangles

