# 3ds Max Wavefront OBJ Exporter v0.97b - (c)2007 guruware
# File Created: 03.12.2015 23:21:33

mtllib 4.mtl

#
# object Box001
#

v  3.515748 13.000000 5.000000
v  4.515748 13.000000 5.000000
v  4.515748 13.000000 -5.000000
v  3.515748 13.000000 -5.000000
v  3.515748 3.000000 5.000000
v  3.515748 3.000000 -5.000000
v  4.515748 3.000000 -5.000000
v  4.515748 3.000000 5.000000
v  -3.515748 13.000000 -5.000000
v  -4.515748 13.000000 -5.000000
v  -4.515748 13.000000 5.000000
v  -3.515748 13.000000 5.000000
v  -3.515748 3.000000 -5.000000
v  -3.515748 3.000000 5.000000
v  -4.515748 3.000000 5.000000
v  -4.515748 3.000000 -5.000000
v  -4.515748 7.167212 2.004501
v  -3.515748 7.167212 2.004501
v  -4.515748 5.993735 0.828526
v  -3.515748 5.993735 0.828527
v  -4.515748 5.995502 -0.832787
v  -3.515748 5.995502 -0.832787
v  -4.515748 7.171475 -2.006264
v  -3.515748 7.171475 -2.006264
v  -4.515748 8.832788 -2.004498
v  -3.515748 8.832788 -2.004498
v  -4.515748 10.006266 -0.828524
v  -3.515748 10.006266 -0.828523
v  -4.515748 10.004500 0.832789
v  -3.515748 10.004500 0.832789
v  -4.515748 8.828526 2.006266
v  -3.515748 8.828526 2.006267
v  4.515748 7.167214 2.004503
v  3.515748 7.167214 2.004503
v  4.515748 5.993737 0.828528
v  3.515748 5.993737 0.828528
v  4.515748 5.995503 -0.832785
v  3.515748 5.995502 -0.832785
v  4.515748 7.171477 -2.006262
v  3.515748 7.171477 -2.006262
v  4.515748 8.832790 -2.004496
v  3.515748 8.832790 -2.004496
v  4.515748 10.006268 -0.828521
v  3.515748 10.006268 -0.828522
v  4.515748 10.004501 0.832791
v  3.515748 10.004501 0.832791
v  4.515748 8.828527 2.006268
v  3.515748 8.828527 2.006268
# 48 vertices

vn 0.000000 1.000000 -0.000000
vn 0.000000 0.000000 1.000000
vn 1.000000 0.000000 -0.000000
vn 0.000000 0.000000 -1.000000
vn -1.000000 0.000000 -0.000000
vn -0.000000 0.001063 -0.999999
vn 0.000000 -0.706355 -0.707858
vn 0.000000 -0.999999 -0.001063
vn -0.000000 -0.707858 0.706355
vn 0.000000 -0.001063 0.999999
vn -0.000000 0.706355 0.707858
vn -0.000000 0.999999 0.001063
vn -0.000000 0.707858 -0.706355
vn 0.000000 0.001063 -0.999999
vn 0.000000 0.707858 -0.706355
vn -0.000000 -0.001063 0.999999
# 16 vertex normals

vt 1.000000 0.000000 0.000000
vt 0.000000 0.000000 0.000000
vt 0.000000 1.000000 0.000000
vt 1.000000 1.000000 0.000000
vt 0.299550 0.583279 0.000000
vt 0.299373 0.417147 0.000000
vt 0.416721 0.299550 0.000000
vt 0.417147 0.700626 0.000000
vt 0.583279 0.700450 0.000000
vt 0.700626 0.582852 0.000000
vt 0.700450 0.416721 0.000000
vt 0.582852 0.299373 0.000000
vt 0.700627 0.417147 0.000000
vt 0.700450 0.583279 0.000000
vt 0.582853 0.700626 0.000000
vt 0.416722 0.700450 0.000000
vt 0.299374 0.582852 0.000000
vt 0.299550 0.416721 0.000000
vt 0.417148 0.299373 0.000000
vt 0.583279 0.299550 0.000000
vt 0.875000 0.525927 1.000000
vt 0.875000 0.565486 1.000000
vt 0.750000 0.565486 1.000000
vt 0.750000 0.525927 1.000000
vt -0.125000 0.525927 1.000000
vt 0.000000 0.525927 1.000000
vt 0.000000 0.565486 1.000000
vt -0.125000 0.565486 1.000000
vt 0.125000 0.525927 1.000000
vt 0.125000 0.565486 1.000000
vt 0.250000 0.525927 1.000000
vt 0.250000 0.565486 1.000000
vt 0.375000 0.525927 1.000000
vt 0.375000 0.565486 1.000000
vt 0.500000 0.525927 1.000000
vt 0.500000 0.565486 1.000000
vt 0.625000 0.525927 1.000000
vt 0.625000 0.565486 1.000000
vt 0.416721 0.700450 0.000000
vt 0.299374 0.582853 0.000000
vt 0.417148 0.299374 0.000000
vt 0.875000 0.208209 1.000000
vt 0.875000 0.247768 1.000000
vt 0.750000 0.247768 1.000000
vt 0.750000 0.208209 1.000000
vt 0.625000 0.247768 1.000000
vt 0.625000 0.208209 1.000000
vt 0.500000 0.247768 1.000000
vt 0.500000 0.208209 1.000000
vt 0.375000 0.247768 1.000000
vt 0.375000 0.208209 1.000000
vt 0.250000 0.247768 1.000000
vt 0.250000 0.208209 1.000000
vt 0.125000 0.247768 1.000000
vt 0.125000 0.208209 1.000000
vt 0.000000 0.247768 1.000000
vt 0.000000 0.208209 1.000000
vt -0.125000 0.247768 1.000000
vt -0.125000 0.208209 1.000000
vt -0.000000 0.208209 1.000000
# 60 texture coords

g Box001
usemtl wire_057008136
s 2
f -48/-60/-16 -47/-59/-16 -46/-58/-16 -45/-57/-16 
s 8
f -48/-59/-15 -44/-58/-15 -41/-57/-15 -47/-60/-15 
s 16
f -47/-59/-14 -41/-58/-14 -16/-56/-14 -2/-55/-14 
f -47/-59/-14 -2/-55/-14 -4/-54/-14 -46/-60/-14 
f -14/-53/-14 -16/-56/-14 -41/-58/-14 -12/-52/-14 
f -12/-52/-14 -41/-58/-14 -42/-57/-14 -10/-51/-14 
f -8/-50/-14 -10/-51/-14 -42/-57/-14 -46/-60/-14 
f -6/-49/-14 -8/-50/-14 -46/-60/-14 -4/-54/-14 
s 32
f -46/-59/-13 -42/-58/-13 -43/-57/-13 -45/-60/-13 
s 64
f -1/-48/-12 -15/-47/-12 -44/-57/-12 -48/-60/-12 
f -44/-57/-12 -15/-47/-12 -13/-46/-12 -11/-45/-12 
f -43/-58/-12 -44/-57/-12 -11/-45/-12 -9/-44/-12 
f -43/-58/-12 -9/-44/-12 -7/-43/-12 -45/-59/-12 
f -45/-59/-12 -7/-43/-12 -5/-42/-12 -3/-41/-12 
f -48/-60/-12 -45/-59/-12 -3/-41/-12 -1/-48/-12 
s off
f -1/-40/-11 -2/-39/-11 -16/-38/-11 -15/-37/-11 
f -1/-36/-10 -3/-35/-10 -4/-34/-10 -2/-33/-10 
f -3/-35/-9 -5/-32/-9 -6/-31/-9 -4/-34/-9 
f -5/-32/-8 -7/-30/-8 -8/-29/-8 -6/-31/-8 
f -7/-30/-7 -9/-28/-7 -10/-27/-7 -8/-29/-7 
f -10/-27/-6 -9/-28/-6 -11/-26/-6 -12/-25/-6 
f -12/-25/-5 -11/-26/-5 -13/-24/-5 -14/-23/-5 
f -14/-23/-4 -13/-24/-4 -15/-37/-4 -16/-38/-4 
s 2
f -39/-57/-16 -38/-60/-16 -37/-59/-16 -40/-58/-16 
s 16
f -37/-59/-14 -35/-58/-14 -31/-56/-14 -17/-55/-14 
f -37/-59/-14 -17/-55/-14 -19/-54/-14 -40/-60/-14 
f -29/-53/-14 -31/-56/-14 -35/-58/-14 -27/-52/-14 
f -27/-52/-14 -35/-58/-14 -36/-57/-14 -25/-51/-14 
f -23/-50/-14 -25/-51/-14 -36/-57/-14 -40/-60/-14 
f -21/-49/-14 -23/-50/-14 -40/-60/-14 -19/-54/-14 
s 8
f -38/-59/-15 -34/-58/-15 -35/-57/-15 -37/-60/-15 
s 64
f -18/-48/-12 -32/-47/-12 -34/-57/-12 -38/-60/-12 
f -34/-57/-12 -32/-47/-12 -30/-46/-12 -28/-22/-12 
f -33/-58/-12 -34/-57/-12 -28/-22/-12 -26/-21/-12 
f -33/-58/-12 -26/-21/-12 -24/-43/-12 -39/-59/-12 
f -39/-59/-12 -24/-43/-12 -22/-20/-12 -20/-41/-12 
f -38/-60/-12 -39/-59/-12 -20/-41/-12 -18/-48/-12 
s 32
f -40/-59/-13 -36/-58/-13 -33/-57/-13 -39/-60/-13 
s off
f -18/-19/-3 -17/-18/-3 -31/-17/-3 -32/-16/-3 
f -32/-16/-2 -31/-17/-2 -29/-15/-2 -30/-14/-2 
f -30/-14/-5 -29/-15/-5 -27/-13/-5 -28/-12/-5 
f -28/-12/-6 -27/-13/-6 -25/-11/-6 -26/-10/-6 
f -25/-11/-1 -23/-9/-1 -24/-8/-1 -26/-10/-1 
f -23/-9/-8 -21/-7/-8 -22/-6/-8 -24/-8/-8 
f -21/-7/-9 -19/-5/-9 -20/-4/-9 -22/-6/-9 
f -19/-5/-10 -17/-3/-10 -18/-2/-10 -20/-1/-10 
# 46 polygons

